<svg fill="none" xmlns="http://www.w3.org/2000/svg" style="display: none;">
    <symbol id="burger-icon">
        <line x1="3" y1="6" x2="21" y2="6" />
        <line x1="3" y1="12" x2="15" y2="12" />
        <line x1="3" y1="18" x2="9" y2="18" />
    </symbol>
    <symbol id="close-icon">
        <line x1="18" y1="6" x2="6" y2="18" />
        <line x1="6" y1="6" x2="18" y2="18" />
    </symbol>
    <symbol id="logotip">
        <path
            d="M22.2648 2.42807C21.9801 2.19109 21.6365 2.03576 21.2705 1.97862C20.9045 1.92148 20.5298 1.96467 20.1864 2.10359L2.26562 9.33911C1.88231 9.49675 1.55602 9.76725 1.33006 10.1147C1.1041 
                    10.4621 0.989169 10.8701 1.00052 11.2844C1.01188 11.6987 1.14898 12.0998 1.39363 12.4343C1.63827 12.7689 1.97889 13.0211 2.37026 13.1575L5.99522 14.418L8.01602 21.0996C8.0429 21.1889 8.08322 
                    21.2738 8.1341 21.3521C8.14178 21.3641 8.15282 21.3732 8.16098 21.3847C8.22002 21.4673 8.29106 21.5397 8.37218 21.6007C8.3957 21.618 8.41778 21.6343 8.44226 21.6501C8.5373 21.713 8.64242 21.7591 
                    8.75282 21.7865L8.76482 21.7874L8.77154 21.7903C8.83826 21.8037 8.90594 21.8105 8.97362 21.8109C8.98034 21.8109 8.9861 21.8076 8.99282 21.8076C9.09506 21.8057 9.19634 21.7884 9.2933 
                    21.7548C9.31634 21.7476 9.33554 21.7346 9.35714 21.7255C9.42962 21.6953 9.49826 21.6569 9.56162 21.6108L9.71378 21.4826L12.4162 18.4994L16.4463 21.6213C16.8015 21.8973 17.2383 22.0476 17.6875 
                    22.0481C18.1587 22.0474 18.6154 21.8848 18.9809 21.5875C19.3465 21.2902 19.5987 20.8763 19.6954 20.4151L22.9579 4.39847C23.0319 4.03805 23.0064 3.66432 22.8843 3.31725C22.7623 2.97018 22.5481 
                    2.66282 22.2648 2.42807ZM9.36962 14.7362C9.23095 14.8742 9.1361 15.05 9.09698 15.2417L8.78786 16.746L8.00354 14.153L12.0691 12.0362L9.36962 14.7362ZM17.6717 20.0402L12.9091 16.3509C12.7099 
                    16.1969 12.4599 16.1236 12.2091 16.1457C11.9582 16.1678 11.7248 16.2836 11.5555 16.47L10.6901 17.4252L10.9959 15.9386L18.0797 8.85623C18.2484 8.68732 18.3511 8.46361 18.3693 8.22556C18.3874 
                    7.98751 18.3197 7.75083 18.1785 7.55832C18.0373 7.3658 17.8319 7.23017 17.5994 7.17594C17.3669 7.1217 17.1227 7.15245 16.9109 7.26263L6.74498 12.5546L3.02018 11.1914L20.9995 3.99911L17.6717 
                    20.0402Z"
            fill="#00A76F">
        </path>
    </symbol>
    <symbol id="door">
        <path fill-rule="evenodd" clip-rule="evenodd"
            d="M11 20C11 19.4477 11.4477 19 12 19L15.2 19C16.0566 19 16.6389 18.9992 17.089 18.9624C17.5274 18.9266 17.7516 18.8617 17.908 18.782C18.2843 18.5903 18.5903 18.2843 18.782 17.908C18.8617 17.7516 18.9266 17.5274 18.9624 17.089C18.9992 16.6389 19 16.0566 19 15.2L19 8.8C19 7.94342 18.9992 7.36113 18.9624 6.91104C18.9266 6.47262 18.8617 6.24842 18.782 6.09202C18.5903 5.71569 18.2843 5.40973 17.908 5.21799C17.7516 5.1383 17.5274 5.07337 17.089 5.03755C16.6389 5.00078 16.0566 5 15.2 5L12 5C11.4477 5 11 4.55228 11 4C11 3.44772 11.4477 3 12 3L15.2413 3C16.0463 2.99999 16.7106 2.99998 17.2518 3.04419C17.8139 3.09012 18.3306 3.18868 18.816 3.43597C19.5686 3.81947 20.1805 4.43139 20.564 5.18404C20.8113 5.66937 20.9099 6.18608 20.9558 6.74817C21 7.28937 21 7.95374 21 8.75872V15.2413C21 16.0463 21 16.7106 20.9558 17.2518C20.9099 17.8139 20.8113 18.3306 20.564 18.816C20.1805 19.5686 19.5686 20.1805 18.816 20.564C18.3306 20.8113 17.8139 20.9099 17.2518 20.9558C16.7106 21 16.0463 21 15.2413 21H12C11.4477 21 11 20.5523 11 20Z"
            fill="#8D8F9A"></path>
        <path
            d="M7.70711 14.2929C8.09763 14.6834 8.09763 15.3166 7.70711 15.7071C7.31658 16.0976 6.68342 16.0976 6.29289 15.7071L3.29289 12.7071C2.90237 12.3166 2.90237 11.6834 3.29289 11.2929L6.29289 8.29289C6.68342 7.90237 7.31658 7.90237 7.70711 8.29289C8.09763 8.68342 8.09763 9.31658 7.70711 9.70711L6.41421 11H15C15.5523 11 16 11.4477 16 12C16 12.5523 15.5523 13 15 13H6.41421L7.70711 14.2929Z"
            fill="#8D8F9A"></path>
    </symbol>
    <symbol id="logo-main">
        <path
            d="M4.52958 69.9125L3.89161 75.8722H1.48328L0.239238 64.6878H1.9458L2.88681 73.5075L3.73212 64.6878H5.42273L6.29994 73.5714L7.20904 64.6878H8.74017L7.49613 75.8722H5.16754L4.52958 69.9125Z"
            fill="#00A76F"></path>
        <path
            d="M11.2358 73.2998C11.2358 73.7045 11.3156 73.9921 11.4751 74.1626C11.6452 74.3223 11.8685 74.4022 12.145 74.4022C12.4214 74.4022 12.6394 74.3223 12.7989 74.1626C12.969 73.9921 13.0541 73.7045 13.0541 73.2998V67.2602C13.0541 66.8554 12.969 66.5731 12.7989 66.4134C12.6394 66.2429 12.4214 66.1577 12.145 66.1577C11.8685 66.1577 11.6452 66.2429 11.4751 66.4134C11.3156 66.5731 11.2358 66.8554 11.2358 67.2602V73.2998ZM9.48143 67.372C9.48143 66.4666 9.71004 65.7742 10.1672 65.2949C10.6245 64.8049 11.2837 64.5599 12.145 64.5599C13.0062 64.5599 13.6654 64.8049 14.1227 65.2949C14.5799 65.7742 14.8085 66.4666 14.8085 67.372V73.1879C14.8085 74.0933 14.5799 74.791 14.1227 75.281C13.6654 75.7603 13.0062 76 12.145 76C11.2837 76 10.6245 75.7603 10.1672 75.281C9.71004 74.791 9.48143 74.0933 9.48143 73.1879V67.372Z"
            fill="#00A76F"></path>
        <path
            d="M19.6169 75.8722C19.5956 75.7976 19.5744 75.7284 19.5531 75.6645C19.5318 75.6006 19.5106 75.5207 19.4893 75.4248C19.4787 75.3289 19.468 75.2064 19.4574 75.0573C19.4574 74.9082 19.4574 74.7218 19.4574 74.4981V72.7405C19.4574 72.2186 19.367 71.8511 19.1863 71.6381C19.0055 71.425 18.7131 71.3185 18.3091 71.3185H17.703V75.8722H15.9486V64.6878H18.5962C19.5106 64.6878 20.1698 64.9008 20.5739 65.3269C20.9885 65.7529 21.1959 66.3974 21.1959 67.2602V68.1389C21.1959 69.2893 20.8131 70.0456 20.0475 70.4078C20.4941 70.5889 20.7971 70.8871 20.9566 71.3025C21.1268 71.7073 21.2118 72.2026 21.2118 72.7885V74.5141C21.2118 74.791 21.2225 75.036 21.2437 75.249C21.265 75.4514 21.3182 75.6591 21.4032 75.8722H19.6169ZM17.703 66.2855V69.7207H18.3888C18.7184 69.7207 18.9736 69.6355 19.1544 69.4651C19.3458 69.2947 19.4415 68.9858 19.4415 68.5384V67.4359C19.4415 67.0312 19.367 66.7382 19.2182 66.5572C19.08 66.3761 18.8567 66.2855 18.5483 66.2855H17.703Z"
            fill="#00A76F"></path>
        <path d="M22.3657 64.6878H24.1201V74.2744H27.0069V75.8722H22.3657V64.6878Z" fill="#00A76F"></path>
        <path
            d="M27.8015 64.6878H30.5766C31.4592 64.6878 32.1131 64.9221 32.5384 65.3908C32.9743 65.8595 33.1923 66.5465 33.1923 67.4519V73.108C33.1923 74.0134 32.9743 74.7005 32.5384 75.1692C32.1131 75.6378 31.4592 75.8722 30.5766 75.8722H27.8015V64.6878ZM29.5559 66.2855V74.2744H30.5447C30.8212 74.2744 31.0392 74.1945 31.1987 74.0347C31.3581 73.875 31.4379 73.5927 31.4379 73.1879V67.372C31.4379 66.9672 31.3581 66.685 31.1987 66.5252C31.0392 66.3654 30.8212 66.2855 30.5447 66.2855H29.5559Z"
            fill="#00A76F"></path>
        <path
            d="M40.5046 72.6287L41.7008 64.6878H44.1411V75.8722H42.4823V67.8513L41.2702 75.8722H39.6115L38.3036 67.9632V75.8722H36.7725V64.6878H39.2128L40.5046 72.6287Z"
            fill="#00A76F"></path>
        <path
            d="M47.0281 73.2998C47.0281 73.7045 47.1079 73.9921 47.2674 74.1626C47.4375 74.3223 47.6608 74.4022 47.9372 74.4022C48.2137 74.4022 48.4316 74.3223 48.5911 74.1626C48.7613 73.9921 48.8463 73.7045 48.8463 73.2998V67.2602C48.8463 66.8554 48.7613 66.5731 48.5911 66.4134C48.4316 66.2429 48.2137 66.1577 47.9372 66.1577C47.6608 66.1577 47.4375 66.2429 47.2674 66.4134C47.1079 66.5731 47.0281 66.8554 47.0281 67.2602V73.2998ZM45.2737 67.372C45.2737 66.4666 45.5023 65.7742 45.9595 65.2949C46.4167 64.8049 47.076 64.5599 47.9372 64.5599C48.7985 64.5599 49.4577 64.8049 49.9149 65.2949C50.3721 65.7742 50.6007 66.4666 50.6007 67.372V73.1879C50.6007 74.0933 50.3721 74.791 49.9149 75.281C49.4577 75.7603 48.7985 76 47.9372 76C47.076 76 46.4167 75.7603 45.9595 75.281C45.5023 74.791 45.2737 74.0933 45.2737 73.1879V67.372Z"
            fill="#00A76F"></path>
        <path
            d="M53.3039 67.7715V75.8722H51.7249V64.6878H53.9259L55.7282 71.3824V64.6878H57.2912V75.8722H55.4889L53.3039 67.7715Z"
            fill="#00A76F"></path>
        <path
            d="M60.3017 69.4012H62.7101V70.999H60.3017V74.2744H63.3321V75.8722H58.5473V64.6878H63.3321V66.2855H60.3017V69.4012Z"
            fill="#00A76F"></path>
        <path
            d="M66.062 72.1653L63.8451 64.6878H65.6792L67.019 69.7847L68.3587 64.6878H70.0334L67.8164 72.1653V75.8722H66.062V72.1653Z"
            fill="#00A76F"></path>
        <path d="M72.7409 64.6878H78.1636V66.2855H76.3294V75.8722H74.575V66.2855H72.7409V64.6878Z"
            fill="#00A76F"></path>
        <path
            d="M82.635 75.8722C82.6137 75.7976 82.5924 75.7284 82.5712 75.6645C82.5499 75.6006 82.5286 75.5207 82.5074 75.4248C82.4967 75.3289 82.4861 75.2064 82.4755 75.0573C82.4755 74.9082 82.4755 74.7218 82.4755 74.4981V72.7405C82.4755 72.2186 82.3851 71.8511 82.2044 71.6381C82.0236 71.425 81.7312 71.3185 81.3271 71.3185H80.7211V75.8722H78.9667V64.6878H81.6142C82.5287 64.6878 83.1879 64.9008 83.5919 65.3269C84.0066 65.7529 84.214 66.3974 84.214 67.2602V68.1389C84.214 69.2893 83.8312 70.0456 83.0656 70.4078C83.5122 70.5889 83.8152 70.8871 83.9747 71.3025C84.1448 71.7073 84.2299 72.2026 84.2299 72.7885V74.5141C84.2299 74.791 84.2405 75.036 84.2618 75.249C84.2831 75.4514 84.3362 75.6591 84.4213 75.8722H82.635ZM80.7211 66.2855V69.7207H81.4069C81.7365 69.7207 81.9917 69.6355 82.1725 69.4651C82.3638 69.2947 82.4595 68.9858 82.4595 68.5384V67.4359C82.4595 67.0312 82.3851 66.7382 82.2363 66.5572C82.098 66.3761 81.8747 66.2855 81.5664 66.2855H80.7211Z"
            fill="#00A76F"></path>
        <path
            d="M91.0616 75.8722H89.2913L88.9883 73.843H86.8351L86.5321 75.8722H84.9212L86.7075 64.6878H89.2753L91.0616 75.8722ZM87.0584 72.3251H88.749L87.9037 66.669L87.0584 72.3251Z"
            fill="#00A76F"></path>
        <path
            d="M93.4417 67.7715V75.8722H91.8627V64.6878H94.0637L95.866 71.3824V64.6878H97.429V75.8722H95.6267L93.4417 67.7715Z"
            fill="#00A76F"></path>
        <path
            d="M98.4618 67.372C98.4618 66.4666 98.6745 65.7742 99.0998 65.2949C99.5357 64.8049 100.184 64.5599 101.046 64.5599C101.907 64.5599 102.55 64.8049 102.975 65.2949C103.411 65.7742 103.629 66.4666 103.629 67.372V67.8034H101.971V67.2602C101.971 66.8554 101.891 66.5731 101.731 66.4134C101.583 66.2429 101.37 66.1577 101.093 66.1577C100.817 66.1577 100.599 66.2429 100.44 66.4134C100.291 66.5731 100.216 66.8554 100.216 67.2602C100.216 67.6436 100.301 67.9845 100.471 68.2828C100.642 68.5704 100.854 68.8473 101.109 69.1136C101.365 69.3692 101.636 69.6302 101.923 69.8965C102.221 70.1521 102.497 70.4344 102.752 70.7433C103.007 71.0522 103.22 71.4037 103.39 71.7979C103.56 72.192 103.645 72.6553 103.645 73.1879C103.645 74.0933 103.422 74.791 102.975 75.281C102.54 75.7603 101.891 76 101.03 76C100.168 76 99.5145 75.7603 99.0679 75.281C98.632 74.791 98.414 74.0933 98.414 73.1879V72.421H100.073V73.2998C100.073 73.7045 100.152 73.9868 100.312 74.1466C100.482 74.3064 100.705 74.3862 100.982 74.3862C101.258 74.3862 101.476 74.3064 101.636 74.1466C101.806 73.9868 101.891 73.7045 101.891 73.2998C101.891 72.9163 101.806 72.5808 101.636 72.2932C101.466 71.9949 101.253 71.718 100.998 71.4623C100.743 71.196 100.466 70.9351 100.168 70.6794C99.8813 70.4131 99.6102 70.1255 99.355 69.8166C99.0998 69.5077 98.8871 69.1562 98.717 68.7621C98.5469 68.368 98.4618 67.9046 98.4618 67.372Z"
            fill="#00A76F"></path>
        <path
            d="M106.405 69.6568H108.67V71.2546H106.405V75.8722H104.65V64.6878H109.292V66.2855H106.405V69.6568Z"
            fill="#00A76F"></path>
        <path
            d="M111.887 69.4012H114.296V70.999H111.887V74.2744H114.918V75.8722H110.133V64.6878H114.918V66.2855H111.887V69.4012Z"
            fill="#00A76F"></path>
        <path
            d="M119.673 75.8722C119.652 75.7976 119.631 75.7284 119.609 75.6645C119.588 75.6006 119.567 75.5207 119.546 75.4248C119.535 75.3289 119.524 75.2064 119.514 75.0573C119.514 74.9082 119.514 74.7218 119.514 74.4981V72.7405C119.514 72.2186 119.423 71.8511 119.243 71.6381C119.062 71.425 118.769 71.3185 118.365 71.3185H117.759V75.8722H116.005V64.6878H118.653C119.567 64.6878 120.226 64.9008 120.63 65.3269C121.045 65.7529 121.252 66.3974 121.252 67.2602V68.1389C121.252 69.2893 120.869 70.0456 120.104 70.4078C120.55 70.5889 120.854 70.8871 121.013 71.3025C121.183 71.7073 121.268 72.2026 121.268 72.7885V74.5141C121.268 74.791 121.279 75.036 121.3 75.249C121.321 75.4514 121.375 75.6591 121.46 75.8722H119.673ZM117.759 66.2855V69.7207H118.445C118.775 69.7207 119.03 69.6355 119.211 69.4651C119.402 69.2947 119.498 68.9858 119.498 68.5384V67.4359C119.498 67.0312 119.423 66.7382 119.275 66.5572C119.136 66.3761 118.913 66.2855 118.605 66.2855H117.759Z"
            fill="#00A76F"></path>
        <path
            d="M115.405 0H0V13.2128H108.811V27.046L104.89 18.6668L92.9478 18.6668L82.4324 41.1397L71.9171 18.6668H59.9748L49.4595 41.1397L38.9441 18.6668H27.0018L16.4865 41.1397L5.97113 18.6668L1.57227e-05 18.6668V34.133L10.5154 59.5088H22.4576L32.973 37.0359L43.4883 59.5088H55.4306L65.9459 37.0359L76.4613 59.5088H88.4036L98.9189 37.0359L108.811 59.5088L122 59.5088V6.60639L115.405 0Z"
            fill="#00A76F"></path>

    </symbol>
    <symbol id="logo-second">
        <path fill-rule="evenodd" clip-rule="evenodd"
            d="M13.6133 12.5455C13.2099 12.5455 12.8828 12.8914 12.8828 13.3182C12.8828 13.7449 12.5558 14.0909 12.1523 14.0909C11.7489 14.0909 11.4219 13.7449 11.4219 13.3182C11.4219 12.0379 12.403 11 13.6133 11H25.0086C26.2189 11 27.2 12.0379 27.2 13.3182V21.0455C27.2 22.3257 26.2189 23.3636 25.0086 23.3636H24.2781V25.6818C24.2781 26.9621 23.297 28 22.0867 28H10.6914C9.48114 28 8.5 26.9621 8.5 25.6818V17.9545C8.5 16.6743 9.48114 15.6364 10.6914 15.6364H22.0867C23.297 15.6364 24.2781 16.6743 24.2781 17.9545V21.8182H25.0086C25.412 21.8182 25.7391 21.4722 25.7391 21.0455V13.3182C25.7391 12.8914 25.412 12.5455 25.0086 12.5455H13.6133ZM22.8172 20.2727H12.1523C11.7489 20.2727 11.4219 19.9268 11.4219 19.5C11.4219 19.0732 11.7489 18.7273 12.1523 18.7273H22.8172V17.9545C22.8172 17.5278 22.4901 17.1818 22.0867 17.1818H10.6914C10.288 17.1818 9.96094 17.5278 9.96094 17.9545V25.6818C9.96094 26.1086 10.288 26.4545 10.6914 26.4545H22.0867C22.4901 26.4545 22.8172 26.1086 22.8172 25.6818V20.2727ZM16.9734 24.1364C16.9734 23.7096 17.3005 23.3636 17.7039 23.3636H20.6258C21.0292 23.3636 21.3563 23.7096 21.3563 24.1364C21.3563 24.5631 21.0292 24.9091 20.6258 24.9091H17.7039C17.3005 24.9091 16.9734 24.5631 16.9734 24.1364Z"
            fill="#00A76F"></path>
        <path
            d="M48.874 14.378L45.899 24.5H44.464L42.42 17.325L40.348 24.5H38.948L35.994 14.378H37.674L39.725 21.686L41.783 14.378H43.057L45.129 21.686L47.187 14.378H48.874ZM52.4522 24.64C51.7615 24.64 51.1595 24.493 50.6462 24.199C50.1328 23.9003 49.7338 23.4733 49.4492 22.918C49.1692 22.3627 49.0292 21.6953 49.0292 20.916C49.0292 20.16 49.1645 19.4973 49.4352 18.928C49.7105 18.3587 50.1048 17.9153 50.6182 17.598C51.1315 17.2807 51.7452 17.122 52.4592 17.122C53.1498 17.122 53.7495 17.2737 54.2582 17.577C54.7668 17.8803 55.1588 18.3143 55.4342 18.879C55.7142 19.4437 55.8542 20.1227 55.8542 20.916C55.8542 21.6487 55.7212 22.295 55.4552 22.855C55.1938 23.4103 54.8088 23.8467 54.3002 24.164C53.7962 24.4813 53.1802 24.64 52.4522 24.64ZM52.4592 23.345C52.8512 23.345 53.1732 23.2377 53.4252 23.023C53.6818 22.8083 53.8708 22.5143 53.9922 22.141C54.1182 21.7677 54.1812 21.343 54.1812 20.867C54.1812 20.4237 54.1252 20.0153 54.0132 19.642C53.9058 19.2687 53.7238 18.97 53.4672 18.746C53.2152 18.5173 52.8792 18.403 52.4592 18.403C52.0625 18.403 51.7335 18.508 51.4722 18.718C51.2155 18.9233 51.0218 19.2127 50.8912 19.586C50.7652 19.9547 50.7022 20.3817 50.7022 20.867C50.7022 21.3057 50.7582 21.714 50.8702 22.092C50.9868 22.4653 51.1735 22.7687 51.4302 23.002C51.6868 23.2307 52.0298 23.345 52.4592 23.345ZM57.3652 24.5V17.262H58.9962V18.83C59.1128 18.4707 59.2785 18.165 59.4932 17.913C59.7125 17.6563 59.9692 17.4603 60.2632 17.325C60.5572 17.1897 60.8768 17.122 61.2222 17.122C61.3062 17.122 61.3878 17.1267 61.4672 17.136C61.5465 17.1453 61.6048 17.1617 61.6422 17.185V18.816C61.5908 18.7927 61.5232 18.7763 61.4392 18.767C61.3598 18.7577 61.2898 18.753 61.2292 18.753C60.8792 18.725 60.5688 18.739 60.2982 18.795C60.0322 18.851 59.8058 18.9467 59.6192 19.082C59.4372 19.2127 59.2995 19.3807 59.2062 19.586C59.1128 19.7867 59.0662 20.0223 59.0662 20.293V24.5H57.3652ZM69.6423 24.5H67.9133L65.8133 21.147L64.6373 22.379V24.5H62.9433V14.098H64.6373V20.545L67.6403 17.262H69.5093L66.8913 20.09L69.6423 24.5Z"
            fill="#00A76F"></path>
    </symbol>
</svg>